<svg width="16" height="16" viewBox="0 0 16 16" fill="none" xmlns="http://www.w3.org/2000/svg">
<g id="&#232;&#135;&#170;&#229;&#138;&#168;&#229;&#136;&#183;&#230;&#150;&#176;">
<path id="&#232;&#183;&#175;&#229;&#190;&#132;" fill-rule="evenodd" clip-rule="evenodd" d="M13.7734 11.3332C14.5756 9.94808 14.8506 8.3198 14.5477 6.74805L13.179 6.72533C13.5606 8.27569 13.2217 9.86037 12.346 11.0923L13.2994 12.0457C13.4702 11.8214 13.6287 11.5838 13.7734 11.3332ZM10.2856 12.819C10.5005 12.717 10.7059 12.6022 10.9011 12.4759L7.82648 9.40118H6.96919L6.44998 10.8332H5.09103L6.24373 7.81844L3.52441 5.09911C2.32212 6.95168 2.37628 9.39343 3.73617 11.2035C5.25828 13.2296 7.9959 13.9048 10.2856 12.819ZM2.56435 4.13906C2.44473 4.30789 2.33187 4.48376 2.22635 4.66652C0.38535 7.85522 1.47781 11.9324 4.66652 13.7734C6.99688 15.1188 9.80174 14.8975 11.8615 13.4362L12.8533 14.428L13.7961 13.4852L2.48244 2.17153L1.53963 3.11434L2.56435 4.13906ZM8.6959 4.78785L10.3391 9.08533L8.26852 7.0148L8.05252 6.41052L7.94954 6.69582L7.02606 5.77234L7.40248 4.78785H8.6959ZM10.6665 3.38105C8.82855 2.3201 6.5779 2.46493 4.90781 3.65409L3.95327 2.69955C6.02777 1.11706 8.9323 0.8402 11.3332 2.22635C12.5664 2.93835 13.4862 3.98517 14.0438 5.18469L9.66652 5.1131L10.6665 3.38105Z" fill="#475468"/>
</g>
</svg>
