<svg class="icon" style="width: 1em;height: 1em;vertical-align: middle;fill: currentColor;overflow: hidden;" viewBox="0 0 1024 1024" version="1.1" xmlns="http://www.w3.org/2000/svg" p-id="9477"><path d="M725.333333 142.506667a424.874667 424.874667 0 0 1 173.482667 189.312L618.666667 327.253333 682.666667 216.405333a341.333333 341.333333 0 1 0 160.810666 214.016l87.594667 1.450667A425.002667 425.002667 0 0 1 881.493333 725.333333C763.733333 929.408 502.741333 999.338667 298.666667 881.493333 94.592 763.733333 24.661333 502.741333 142.506667 298.666667 260.266667 94.592 521.258667 24.661333 725.333333 142.506667z m-168.789333 163.925333l147.925333 386.901333h-86.954666l-33.28-91.648h-138.197334l-33.237333 91.648H325.845333l147.925334-386.901333h82.773333z m-41.173333 103.850667l-43.648 120.917333h86.869333l-43.221333-120.917333z" fill="#475468" p-id="9478"></path></svg>