<svg class="icon" style="width: 1em;height: 1em;vertical-align: middle;fill: currentColor;overflow: hidden;" viewBox="0 0 1024 1024" version="1.1" xmlns="http://www.w3.org/2000/svg" p-id="8155"><path d="M950.555 411.291L570.297 110.696c-32.737-25.963-84.018-25.963-116.755 0L73.445 411.291c-13.063 10.321-15.16 29.189-5 42.09s28.705 15.159 41.768 4.999l11.772-9.676V812.03c0 51.443 54.346 89.985 101.918 89.985h599.9c47.088 0 78.05-36.123 78.05-89.985V449.994l10.967 8.386c5.483 4.354 12.256 6.45 18.868 6.45 8.869 0 17.739-3.87 23.705-11.45 10.321-12.9 8.225-31.768-4.838-42.089z m-468.63 430.734V675.602c0-8.225 14.997-12.418 29.994-12.418s29.995 4.193 29.995 12.418v166.262l-59.99 0.161z m360.1-29.995c0 19.836-5.483 29.995-18.061 29.995H602.549c0-0.484-0.645-0.806-0.645-1.29V675.602c0-34.833-28.06-72.408-89.985-72.408s-89.985 37.575-89.985 72.408v165.133c0 0.484 0.807 0.806 0.807 1.29H224.065c-18.868 0-41.929-16.287-41.929-29.995V401.132L490.31 157.785c11.127-8.708 31.124-8.708 42.09 0l309.464 244.798V812.03z" fill="currentColor" p-id="8156"></path></svg>