<svg width="18" height="18" viewBox="0 0 18 18" fill="none" xmlns="http://www.w3.org/2000/svg">
<g id="&#232;&#181;&#132;&#230;&#186;&#144;">
<path id="&#232;&#183;&#175;&#229;&#190;&#132;" fill-rule="evenodd" clip-rule="evenodd" d="M15.0621 11.4001L15.9636 11.9409C16.0768 12.0086 16.146 12.1308 16.146 12.2626C16.146 12.3945 16.0768 12.5166 15.9636 12.5844L9.38614 16.5309C9.14844 16.6737 8.85134 16.6737 8.61364 16.5309L2.03614 12.5844C1.92301 12.5166 1.85376 12.3945 1.85376 12.2626C1.85376 12.1308 1.92301 12.0086 2.03614 11.9409L2.93764 11.4001L8.99989 15.0376L15.0621 11.4001V11.4001ZM15.0621 7.87511L15.9636 8.41586C16.0768 8.48359 16.146 8.60576 16.146 8.73761C16.146 8.86947 16.0768 8.99164 15.9636 9.05936L8.99989 13.2376L2.03614 9.05936C1.92301 8.99164 1.85376 8.86947 1.85376 8.73761C1.85376 8.60576 1.92301 8.48359 2.03614 8.41586L2.93764 7.87511L8.99989 11.5126L15.0621 7.87511ZM9.38539 0.981863L15.9636 4.92836C16.0768 4.99609 16.146 5.11826 16.146 5.25011C16.146 5.38197 16.0768 5.50414 15.9636 5.57186L8.99989 9.75011L2.03614 5.57186C1.92301 5.50414 1.85376 5.38197 1.85376 5.25011C1.85376 5.11826 1.92301 4.99609 2.03614 4.92836L8.61364 0.981863C8.85134 0.839053 9.14844 0.839053 9.38614 0.981863H9.38539ZM8.99989 2.49911L4.41514 5.25011L8.99989 8.00111L13.5846 5.25011L8.99989 2.49911Z" fill="currentColor" fill-opacity="0.6"/>
</g>
</svg>
