<svg width="18" height="18" viewBox="0 0 18 18" fill="none" xmlns="http://www.w3.org/2000/svg">
<g id="&#230;&#151;&#165;&#229;&#191;&#151;&#232;&#174;&#176;&#229;&#189;&#149;">
<path id="&#232;&#183;&#175;&#229;&#190;&#132;" fill-rule="evenodd" clip-rule="evenodd" d="M13.125 9C15.4032 9 17.25 10.8468 17.25 13.125C17.25 15.4032 15.4032 17.25 13.125 17.25C10.8468 17.25 9 15.4032 9 13.125C9 10.8468 10.8468 9 13.125 9ZM15 1.5C15.3846 1.5 15.7016 1.78953 15.745 2.16253L15.75 2.25V8.25H14.2493L14.2497 2.9997H3.7494V14.9994L8.25 14.9993V16.5H3C2.61537 16.5 2.29837 16.2105 2.25505 15.8375L2.25 15.75V2.25C2.25 1.86537 2.53953 1.54837 2.91253 1.50505L3 1.5H15ZM13.125 10.5C11.6753 10.5 10.5 11.6753 10.5 13.125C10.5 14.5747 11.6753 15.75 13.125 15.75C14.5747 15.75 15.75 14.5747 15.75 13.125C15.75 11.6753 14.5747 10.5 13.125 10.5ZM13.3127 11.85L13.3125 12.975L14.5104 13.6016L13.9887 14.5984L12.1877 13.6557V11.85H13.3127ZM10.5 7.5V9H5.25V7.5H10.5ZM12.75 4.5V6H5.25V4.5H12.75Z" fill="white" fill-opacity="0.6"/>
</g>
</svg>
