<svg class="icon" style="width: 1em;height: 1em;vertical-align: middle;fill: currentColor;overflow: hidden;" viewBox="0 0 1024 1024" version="1.1" xmlns="http://www.w3.org/2000/svg" p-id="3723"><path d="M896 810.666667a42.666667 42.666667 0 0 1-42.666667 42.666666H170.666667a42.666667 42.666667 0 0 1 0-85.333333h682.666666a42.666667 42.666667 0 0 1 42.666667 42.666667zM296.533333 202.965333v319.402667a21.333333 21.333333 0 0 1-36.437333 15.061333L115.498667 392.832a42.666667 42.666667 0 0 1 0-60.330667l144.64-144.64a21.333333 21.333333 0 0 1 36.394666 15.104zM896 512a42.666667 42.666667 0 0 1-42.666667 42.666667h-298.666666a42.666667 42.666667 0 0 1 0-85.333334h298.666666a42.666667 42.666667 0 0 1 42.666667 42.666667z m0-298.666667a42.666667 42.666667 0 0 1-42.666667 42.666667h-298.666666a42.666667 42.666667 0 0 1 0-85.333333h298.666666a42.666667 42.666667 0 0 1 42.666667 42.666666z" fill="currentColor" p-id="3724"></path></svg>